# xmcd
#
# Track frame offsets: 
#        150
#        17384
#        29945
#        46723
#        61149
#        77021
#        93524
#        107020
#        120640
#        138122
#        155066
#        171428
#        189318
#        206750
#        223839
#        241340
#        259234
#        278181
#        298306
#        312194
#
# Disc length: 4401 seconds
#
# Revision: 0
# Processed by: cddbd v1.5.2PL0 Copyright (c) Steve Scherf et al.
# Submitted via: ExactAudioCopy v1.1
#
DISCID=27112f14
DTITLE=Various Artist - Summer Hits - CD 2
DYEAR=2018
DGENRE=Pop
TTITLE0=Luis Fonsi - Despacito
TTITLE1=Michel Telo - Ai Se Eu Te Pego
TTITLE2=Los Del Rio - Macarena
TTITLE3=Jody Bernal - Que Si, Que No
TTITLE4=Las Ketchup - The Ketchup Song (Aserejé)
TTITLE5=Lou Bega - Mambo No. 5 (A Little Bit Of...)
TTITLE6=Alvaro Soler - El Mismo Sol
TTITLE7=Omi - Cheerleader (Felix Jaehn Remix)
TTITLE8=Lorca - Ritmo De La Noche
TTITLE9=Crystal Waters - Gypsy Woman (La Da Dee La Da Da)
TTITLE10=In-Grid - Tu Es Foutu
TTITLE11=Mory Kante - Yé Ké Yé Ké
TTITLE12=Gilbert Montagné - Les Sunlights Des Tropiques
TTITLE13=Khaled - C'Est La Vie
TTITLE14=Gibson Brothers - Que Sera Mi Vida
TTITLE15=Jimmy Cliff - Sunshine In The Music
TTITLE16=Bandolero - Paris Latino
TTITLE17=10CC - Dreadlock Holiday
TTITLE18=Roots Syndicate - Mockin' Bird Hill
TTITLE19=Big Mountain - Baby I Love Your Way
EXTD=
EXTT0=
EXTT1=
EXTT2=
EXTT3=
EXTT4=
EXTT5=
EXTT6=
EXTT7=
EXTT8=
EXTT9=
EXTT10=
EXTT11=
EXTT12=
EXTT13=
EXTT14=
EXTT15=
EXTT16=
EXTT17=
EXTT18=
EXTT19=
PLAYORDER=
